<?xml version="1.0" encoding="UTF-8"?><svg id="Layer_1" xmlns="http://www.w3.org/2000/svg" viewBox="0 0 821 774"><defs><style>.cls-1{font-family:MOONBLOSSOM, MOONBLOSSOM;font-size:105px;}.cls-1,.cls-2{fill:#f2d1b3;}.cls-3{fill:#fff;}.cls-4{fill:#a68d85;}.cls-5{fill:#392b40;}</style></defs><rect class="cls-5" width="821" height="774"/><g><g><path class="cls-2" d="m515.95,156.7c-.05-.76-.68-1.36-1.45-1.37l-40.91-.53c-.39-.01-.77.15-1.05.42-.28.27-.44.65-.44,1.04-.02,3.91.07,7.82.16,11.59.07,3.24.14,6.58.15,9.93l-33.24.57c.72-10.73,1.49-21.43,2.3-32.11.03-.42-.12-.83-.41-1.13-.29-.3-.7-.46-1.12-.45l-42.38,1.76c-.78.03-1.4.66-1.41,1.44l-.95,47.52-29.03.03.68-17.79c.02-.4-.13-.78-.4-1.07-.27-.29-.65-.45-1.05-.46l-24.54-.25.54-18.14c.01-.41-.14-.8-.44-1.09-.29-.29-.68-.44-1.09-.42-4.69.19-9.43.57-14.02.94-4.56.37-9.28.75-13.91.94-.81.03-1.44.72-1.41,1.53,0,.15.04.29.09.42,0,0,0,.01,0,.02l-6.68,172.97c-.02.4.13.79.41,1.07.28.29.66.45,1.06.45l203.63.69h.34s0,0,0,0c.79,0,1.44-.62,1.47-1.4l2.91-64.42c.36-8.06.8-16.25,1.21-24.17.68-12.89,1.38-26.22,1.81-39.35.57-17.37.3-33.47-.82-49.2Zm-2.84,1.56c.57,8.29.89,16.7.98,25.34h-38.97s.19-3.87.19-3.87c.03-.11.04-.22.04-.34.02-3.91-.07-7.82-.16-11.59-.07-3.28-.15-6.65-.16-10.03l38.07.49Zm-3.86,145.72l-39.89-.66.39-8.08,39.91-.35-.41,9.09Zm-201.16-2.32l26.08.02-.25,8.29-26.11-1.04.28-7.28Zm31.83-94.11l22.88-.6-3.2,84.05c-3.13-2.71-7.29-4.24-11.43-4.08-3.99.15-7.87,1.86-10.75,4.61l2.5-83.99Zm21.53,112.28c3.59.19,7.19.29,10.79.29,5.17,0,10.35-.2,15.49-.6l-.19,3.14s-.07,0-.12,0c-8.66.25-17.42.17-26.07-.24l.1-2.59Zm29.87-11.03l38.48,1.05c-.04,1.27-.07,2.55-.11,3.82-.02,0-.04,0-.07,0l-38.55-.87.24-3.99Zm38.75-7.35c-3.08.46-6.22.53-9.32.2-1.12-.12-2.29-.3-3.29-.77-.93-.44-1.61-1.12-1.87-1.87-.23-.69-.04-1.5.43-1.84.19-.13.5-.18.77-.12.19.05.34.14.4.26.37.73,1.25,1.02,1.98.65.73-.37,1.02-1.25.65-1.98-.45-.89-1.3-1.54-2.34-1.8-1.12-.27-2.31-.05-3.2.6-1.5,1.1-2.13,3.27-1.48,5.17.51,1.5,1.74,2.8,3.39,3.58,1.4.66,2.93.89,4.24,1.03,1.4.15,2.81.23,4.22.23,1.78,0,3.55-.13,5.32-.37-.03.83-.05,1.65-.08,2.48l-38.4-1.05.15-2.43,9.47.49c.58.03,1.21.06,1.86.06,1.39,0,2.9-.15,4.29-.79,2.23-1.02,4.05-3.64,3.22-6.24-.55-1.74-2.21-2.99-4.03-3.03-1.84-.06-3.54,1.11-4.18,2.82-.29.76.1,1.61.86,1.89.76.29,1.61-.1,1.89-.86.2-.53.78-.93,1.35-.91.56.01,1.13.45,1.3.98.31.99-.62,2.2-1.65,2.67-1.39.64-3.19.54-4.77.46l-9.45-.49,6.08-101.17c.11-.2.18-.43.18-.67l.56-27.7c1.8-.19,3.29-.45,4.74-.7,1.49-.26,2.9-.5,4.63-.68,1.39-.14,2.61-.22,3.47.27.61.35,1.04,1.06,1.06,1.77.02.71-.36,1.44-.96,1.82-.43.28-.98.37-1.39.23-.35-.12-.66-.46-.69-.78-.08-.81-.79-1.4-1.6-1.33-.81.08-1.4.8-1.33,1.6.14,1.47,1.21,2.79,2.67,3.29.44.15.9.22,1.37.22.89,0,1.79-.26,2.57-.77,1.44-.93,2.34-2.65,2.29-4.37-.05-1.72-1.04-3.38-2.53-4.24-1.74-1-3.76-.8-5.23-.65-1.84.19-3.36.45-4.84.71-1.36.24-2.65.46-4.18.63l.11-5.34,38.54-.43c-.08,1.07-.15,2.14-.23,3.21l-9.31.31c-1.58.05-3.37.11-5.08.63-2.08.63-3.71,1.87-4.57,3.49-1.15,2.16-.73,4.91.99,6.39.77.66,1.78,1.02,2.82,1.02.32,0,.63-.03.95-.1,1.26-.26,2.28-1.03,2.79-2.1.35-.73.04-1.61-.69-1.96s-1.61-.04-1.96.69c-.16.33-.57.45-.73.49-.46.1-.95,0-1.25-.27-.68-.59-.82-1.84-.32-2.78.49-.91,1.52-1.66,2.83-2.06,1.34-.41,2.85-.46,4.32-.51l9-.3c-3.09,44.19-5.38,88.75-6.83,133.06Zm7.48-142.17l-38.69.43.05-2.49,38.87-1.13c-.08,1.06-.16,2.12-.24,3.19Zm-49.65,157.28c-8.73.69-17.59.8-26.35.33l3.89-102.3,28.57.35-6.11,101.62Zm-25-112.56l-22.9.6.13-4.34,22.44-.05c.17,0,.33-.03.48-.09l-.15,3.88Zm-25.19-21.24l-25.07.99.34-8.7,24.99-.9-.26,8.62Zm-25.18,3.93l25.09-.99-3.36,113.02-26.05-.02,4.33-112.01Zm23.73,143.74l1.02-34.3c.14-.1.27-.22.37-.37,2.35-3.49,6.42-5.75,10.63-5.92,4.2-.16,8.44,1.79,11.05,5.09.04.04.08.08.12.12l-1.39,36.65s0,.05,0,.08l-22.63-.08c.48-.23.82-.71.83-1.28Zm25.03-6.34c5.38.25,10.8.38,16.21.38,3.32,0,6.64-.05,9.94-.14l-.44,7.29c0,.09,0,.18,0,.27l-26.02-.09.29-7.71Zm28.65,7.71l1.04-17.34,38.61.87h.02s.02,0,.04,0c-.16,5.57-.31,11.14-.45,16.7l-39.28-.13s.01-.06.01-.1Zm42.57-13.63l32.98.57h.03c.05,0,.11,0,.16-.02l-.65,13.42-32.89-.11c.11-4.62.23-9.24.36-13.87Zm33.31-2.34c-.09-.02-.18-.03-.27-.03l-32.95-.57c1.05-36.37,2.67-72.96,4.84-109.41,4.8,2.93,10.4,4.51,16.02,4.51.16,0,.33,0,.49,0,6.14-.1,12.21-2.09,17.23-5.63l-5.35,111.14Zm5.51-114.47c-.34-.02-.7.07-.99.29-4.69,3.6-10.53,5.63-16.44,5.73-5.77.1-11.52-1.66-16.26-4.94.13-2.23.27-4.46.41-6.68,5,2.09,10.44,3.13,15.88,3.13,6.11,0,12.22-1.31,17.71-3.91l-.31,6.39Zm.99-20.63l-.52,10.89s-.03.01-.05.02c-10.2,5.37-23,5.75-33.5.99.24-3.78.48-7.55.73-11.33l33.34-.57Zm-33.9-33.05c-.17,2.24-.33,4.48-.5,6.72l-38.97,1.13.13-6.22,39.34-1.64Zm-43.4,50.65l-.82,13.67-28.63-.35.51-13.28,28.95-.03Zm-31.16-19.3l-.7,18.36c-.18-.08-.38-.12-.59-.12h0l-22.35.05.55-18.52,23.08.24Zm-37.77-18.95c4.04-.33,8.21-.66,12.33-.87l-.36,11.99-24.96.9.43-11.15c4.21-.2,8.45-.54,12.56-.87Zm-18.39,151.79l26.14,1.04-.52,17.44c-.02.59.32,1.11.82,1.36l-27.2-.09.76-19.75Zm200.28,20.43l-40-.13,1.25-25.91,39.9.66-1.14,25.39Zm5.86-126.5c-.43,13.1-1.13,26.41-1.81,39.29-.42,7.93-.85,16.13-1.21,24.19l-1.02,22.65-39.9.35,5.09-105.74h39.13c.03,6.26-.07,12.66-.28,19.25Z"/><path class="cls-2" d="m317.71,289.19c1.35,1.01,3.03,1.53,4.71,1.53,1.21,0,2.41-.27,3.49-.82,1.28-.65,2.19-1.6,2.57-2.69.7-2.01-.45-4.11-1.82-5.21-1.42-1.14-3.18-1.62-4.74-2.05-.24-.07-.5-.02-.71.13-.2.14-.33.37-.35.62l-.26,3.37c-.04.46.31.87.77.9.47.03.87-.31.9-.77l.18-2.35c1.14.33,2.26.74,3.15,1.46.95.77,1.7,2.16,1.29,3.34-.32.92-1.23,1.49-1.75,1.75-2.03,1.03-4.61.8-6.43-.56-1.82-1.36-2.76-3.78-2.34-6.01.09-.46-.21-.9-.67-.98-.46-.09-.9.22-.98.67-.53,2.85.67,5.93,2.99,7.67Z"/><path class="cls-2" d="m316.97,276.39c1.16.79,2.63.82,3.7.84l6.63.13s.09,0,.14,0c.4,0,1.09-.05,1.54-.61.43-.54.35-1.22.31-1.54l-.5-4.01c-.06-.46-.48-.79-.94-.73-.46.06-.79.48-.73.94l.5,4.01c.01.11.02.19.02.25-.06,0-.16.01-.31,0l-4.25-.09-.02-4.86c0-.46-.38-.84-.84-.84h0c-.47,0-.84.38-.84.85l.02,4.81h-.7c-1.15-.04-2.09-.09-2.79-.56-.64-.43-1.07-1.26-1.19-2.26-.12-1,.06-2.07.24-3.09.08-.46-.23-.89-.69-.97-.46-.08-.89.23-.97.69-.19,1.09-.4,2.33-.25,3.57.18,1.49.88,2.75,1.92,3.45Z"/><path class="cls-2" d="m327.06,256.84c-2-1.07-4.46-1.22-6.57-.4-2.18.84-3.81,2.48-4.27,4.29-.25.98-.27,2.47,1.06,4.02,1.87,2.18,4.3,3.09,6.51,3.09,1.33,0,2.57-.33,3.57-.91,2.37-1.38,3.56-4.35,2.71-6.77-.48-1.36-1.55-2.54-3.01-3.32Zm-.54,8.64c-2.67,1.55-6.14.29-7.96-1.83-.69-.8-.92-1.64-.7-2.51.32-1.27,1.59-2.5,3.24-3.13.71-.27,1.47-.41,2.23-.41,1.02,0,2.04.24,2.95.73,1.07.57,1.88,1.45,2.21,2.4.58,1.65-.3,3.79-1.97,4.76Z"/><path class="cls-2" d="m316.19,245.84l6.88,2.84c-2.04,1.49-4.26,2.7-6.62,3.6-.37.14-.59.51-.53.9s.37.69.76.72l12.13,1.07s.05,0,.07,0c.43,0,.8-.33.84-.77.04-.46-.3-.87-.76-.91l-8.9-.78c1.85-.95,3.59-2.08,5.21-3.4.23-.19.34-.48.3-.77-.04-.29-.24-.54-.51-.66l-5.5-2.28c3.4-.46,6.85-.57,10.28-.32.47.04.87-.31.9-.78s-.31-.87-.78-.9c-4.55-.34-9.13-.06-13.61.82-.36.07-.64.37-.67.74-.04.37.17.72.52.86Z"/><path class="cls-2" d="m319.63,238.87c-.2-.19-.23-.75-.24-1.05l-.22-4.79c-.02-.46-.41-.82-.88-.8-.46.02-.82.41-.8.88l.22,4.79c.03.58.07,1.56.79,2.22.63.57,1.45.61,1.99.64l8.71.41s.03,0,.04,0c.22,0,.44-.09.6-.25.17-.17.26-.4.24-.64l-.42-7.97c-.02-.46-.43-.82-.88-.79-.47.02-.82.42-.8.88l.37,7.04-3.65-.17-.45-4.1c-.05-.46-.46-.8-.93-.74-.46.05-.8.47-.74.93l.42,3.84-2.43-.12c-.3-.01-.76-.04-.94-.2Z"/><path class="cls-2" d="m330.64,225.11c0-.46-.4-.83-.85-.83-3.52.04-7.07-.17-10.55-.63l.07-2.32c.01-.47-.35-.85-.82-.87-.47,0-.85.35-.86.82l-.22,7.65c-.01.47.35.85.82.87h.02c.45,0,.83-.36.84-.82l.1-3.65c3.2.42,6.45.63,9.68.63.32,0,.63,0,.95,0,.46,0,.83-.39.83-.85Z"/><path class="cls-2" d="m330.17,210.46l-6.68,5.47-.13-1.63c-.05-.66-.11-1.4-.4-2.12-.36-.91-1.03-1.56-1.84-1.8-1.26-.38-2.49.33-3.15,1.2-.63.83-.88,1.81-1.09,2.67-.21.82-.76,3.01.7,4.22.72.59,1.62.67,2.33.67.14,0,.27,0,.39,0l8.29-.19c.47-.01.83-.4.82-.86,0-.46-.38-.82-.84-.82h-.02l-4.14.09h0l6.83-5.6c.36-.29.41-.82.12-1.18s-.82-.41-1.18-.12Zm-9.9,6.99c-.65.01-1.27,0-1.61-.28-.43-.35-.48-1.18-.14-2.51.19-.74.38-1.51.8-2.06.26-.34.7-.64,1.11-.64.07,0,.15,0,.22.03.3.09.59.4.76.82.19.48.24,1.06.28,1.63l.24,2.97-1.66.04Z"/><path class="cls-2" d="m316.77,201.6l4.87,2.76-4.01,2.69c-.39.26-.49.78-.23,1.17.16.24.43.37.7.37.16,0,.32-.05.47-.14l5.15-3.44s.02-.02.03-.03l8.47,1.06s.07,0,.1,0c.42,0,.78-.31.83-.74.06-.46-.27-.88-.73-.94l-8.83-1.1c-.14-.02-.27,0-.39.05l-5.59-3.17c-.4-.23-.92-.09-1.15.32s-.09.92.32,1.15Z"/><path class="cls-2" d="m355.45,271.45c.36,0,.69-.23.8-.6.13-.44-.11-.91-.56-1.05l-4.16-1.28-.14-5.74,3.48-1.29c.43-.16.66-.64.5-1.08s-.64-.66-1.08-.5l-11.8,4.36c-.32.12-.98.36-1.23,1.03-.14.37-.13.77.05,1.13.36.73,1.23,1.07,1.59,1.18l12.32,3.78c.08.02.17.04.25.04Zm-12.42-5.57s.02,0,.04-.01l6.65-2.46.11,4.6-6.46-1.98c-.14-.04-.25-.09-.35-.15Z"/><path class="cls-2" d="m342.33,258.31c.3.11.61.14.89.14.31,0,.61-.04.85-.08l11.43-1.66c.46-.07.78-.49.71-.95-.07-.46-.49-.78-.95-.71l-5.8.84c1.63-2.47,3.73-4.65,6.15-6.35.38-.27.47-.79.2-1.17-.27-.38-.79-.47-1.17-.2-2.17,1.53-4.1,3.41-5.69,5.54-.01-.22-.03-.44-.06-.67-.19-1.56-.82-2.91-1.78-3.8-1.22-1.13-2.96-1.46-4.33-.82-1.11.51-1.97,1.67-2.28,3.09-.26,1.18-.15,2.38-.05,3.45.07.76.26,2.77,1.88,3.35Zm-.18-6.44c.2-.91.7-1.63,1.34-1.92.23-.11.49-.16.76-.16.6,0,1.24.25,1.72.69.67.61,1.11,1.59,1.25,2.76.12.97.03,1.99-.09,2.99l-3.3.48c-.33.05-.7.1-.93.02-.41-.15-.67-.78-.77-1.92-.09-.99-.18-2.01.02-2.93Z"/><path class="cls-2" d="m342.69,245.6h.02c.45,0,.83-.36.84-.82l.16-5.58,11.52.06h0c.46,0,.84-.37.84-.84,0-.47-.37-.84-.84-.85l-11.48-.06.1-3.56c.01-.46-.35-.85-.82-.86-.47-.02-.85.35-.86.81l-.31,10.81c-.01.47.35.85.81.87Z"/><path class="cls-2" d="m369.04,273.44s.03,0,.04,0c.44,0,.81-.35.84-.8l.17-3.3,13.12.69s.03,0,.04,0c.45,0,.82-.35.84-.8.02-.46-.33-.86-.8-.88l-13.12-.69.18-3.46c.02-.46-.33-.86-.8-.88-.46-.03-.86.33-.88.8l-.44,8.43c-.02.46.33.86.8.88Z"/><path class="cls-2" d="m366.71,293.93c2.37.4,4.77.68,7.18.82l.07,5.8c-2.31-.11-4.61-.32-6.89-.61-.46-.06-.88.27-.94.73-.06.46.27.88.73.94,3.8.49,7.65.74,11.48.74,1.11,0,2.22-.02,3.33-.06.46-.02.83-.41.81-.87-.02-.46-.41-.83-.87-.81-1.98.07-3.97.08-5.96.02l-.07-5.79c.78.03,1.57.05,2.35.05,1.1,0,2.21-.03,3.31-.08.47-.02.82-.42.8-.88s-.41-.83-.88-.8c-4.73.23-9.49-.05-14.16-.84-.46-.08-.89.23-.97.69-.08.46.23.89.69.97Z"/><path class="cls-2" d="m368.22,287.64c4.69.83,9.49,1.28,14.26,1.34h.01c.46,0,.83-.37.84-.83,0-.46-.36-.85-.83-.85-4.68-.07-9.39-.51-13.99-1.32-.46-.08-.89.22-.97.68-.08.46.22.89.68.97Z"/><path class="cls-2" d="m369.31,282.53c.68.87,1.61,1.41,2.55,1.5,1.55.15,2.87-.92,3.58-1.97.45-.65.75-1.35,1.05-2.03.17-.38.33-.75.51-1.1.37-.71.99-1.61,1.86-1.85.79-.22,1.76.17,2.3.92.53.73.69,1.78.43,2.81-.23.93-.78,1.85-1.63,2.75-.32.34-.31.87.03,1.19.16.15.37.23.58.23.22,0,.45-.09.61-.26,1.05-1.11,1.74-2.28,2.04-3.5.37-1.5.11-3.07-.7-4.2-.95-1.33-2.64-1.97-4.11-1.56-1.15.32-2.16,1.26-2.91,2.7-.2.4-.38.8-.55,1.2-.28.63-.54,1.23-.9,1.75-.42.62-1.21,1.32-2.03,1.24-.48-.05-.98-.36-1.38-.86-.41-.53-.68-1.19-.94-1.87-.28-.73-.52-1.43-.42-2.07.07-.49.46-.94.81-.94,0,0,.02,0,.02,0,.46,0,.83-.37.84-.83,0-.47-.36-.85-.82-.86-1.36,0-2.34,1.18-2.52,2.37-.16,1.04.16,2.01.51,2.92.3.78.63,1.6,1.19,2.31Z"/><path class="cls-2" d="m383.43,253.28c-2.72-2-5.92-2.79-8.78-2.16-2.17.48-4.88,2.32-5.67,4.58-.46,1.31-.22,2.59.68,3.7,2.5,3.07,6.06,4.84,9.68,4.84.32,0,.64-.01.95-.04,1.56-.13,2.89-.57,3.96-1.29,1.32-.9,2.19-2.23,2.37-3.65.27-2.06-.92-4.3-3.2-5.97Zm1.53,5.75c-.12.93-.74,1.86-1.65,2.48-.83.56-1.89.9-3.16,1.01-3.38.29-6.81-1.27-9.18-4.18-.53-.65-.66-1.34-.4-2.09.57-1.62,2.75-3.11,4.44-3.49.51-.11,1.05-.17,1.59-.17,1.95,0,4.04.72,5.83,2.04.66.49,2.81,2.25,2.53,4.4Z"/><path class="cls-2" d="m369.55,249.36c.66.42,1.43.44,1.99.46l5.09.13s.09.05.14.07c.23.09.49.07.7-.05l7.86.2h.02c.45,0,.83-.36.84-.82.01-.46-.35-.85-.82-.86l-6.44-.17c2.21-2.49,4.77-4.64,7.62-6.39.4-.24.52-.76.28-1.16-.24-.4-.76-.52-1.15-.28-2.88,1.77-5.48,3.92-7.74,6.42-.07-1.22-.31-2.46-.93-3.59-1.05-1.92-3.56-3.38-5.78-2.39-1.54.69-2.53,2.35-2.84,4.79-.28,2.19.48,3.18,1.17,3.62Zm.5-3.4c.14-1.05.56-2.89,1.86-3.47.26-.12.53-.17.81-.17,1.1,0,2.27.83,2.81,1.83.66,1.21.77,2.7.74,4.12l-4.68-.12c-.4,0-.86-.02-1.13-.19-.56-.36-.47-1.51-.41-1.99Z"/><path class="cls-2" d="m369.96,238.69c.16,0,.33-.05.47-.15l6.6-4.54,10.08,1.24s.07,0,.1,0c.42,0,.78-.31.83-.74.06-.46-.27-.88-.73-.94l-10.38-1.27-5.69-4.64c-.36-.29-.89-.24-1.18.12-.29.36-.24.89.12,1.18l5.13,4.18-5.83,4.01c-.38.26-.48.79-.22,1.17.16.24.43.36.69.36Z"/><path class="cls-2" d="m457.27,295.18c-1.2-.52-2.55-.57-3.68-.12-1.66.66-2.66,2.06-3.63,3.42-.72,1.02-1.41,1.98-2.33,2.59-.89.58-2.06.75-3.22.46-1.16-.29-2.12-.98-2.63-1.91-.51-.93-.59-2.11-.22-3.24s1.14-2.04,2.1-2.48c.42-.19.61-.69.41-1.11s-.69-.61-1.11-.41c-1.39.64-2.48,1.91-3,3.48-.52,1.58-.39,3.25.35,4.58s2.09,2.33,3.7,2.73,3.27.15,4.54-.69c1.19-.78,2-1.92,2.78-3.02.86-1.21,1.67-2.36,2.87-2.83.72-.28,1.6-.25,2.39.1.8.35,1.42.96,1.7,1.68.28.72.25,1.6-.1,2.39-.35.8-.96,1.42-1.69,1.7-.43.17-.65.66-.48,1.09.13.33.45.53.78.53.1,0,.2-.02.31-.06,1.13-.44,2.09-1.39,2.61-2.59.53-1.2.57-2.55.13-3.68s-1.39-2.09-2.6-2.61Z"/><path class="cls-2" d="m445.19,280.66c-.32-.34-.85-.35-1.19-.03-1.37,1.3-1.91,3.45-1.38,5.48.43,1.64,1.51,3.2,3.12,4.5,1.96,1.58,4.25,2.45,6.48,2.45.08,0,.17,0,.25,0,2.65-.08,5.07-1.43,6.33-3.52,1.37-2.29,1.1-5.41-.63-7.24-.32-.34-.85-.35-1.19-.03-.34.32-.35.85-.03,1.19,1.23,1.31,1.41,3.55.41,5.22-.95,1.58-2.88,2.65-4.93,2.71-1.9.06-3.9-.68-5.62-2.07-.93-.75-2.12-1.98-2.55-3.62-.37-1.42,0-2.97.91-3.84.33-.32.35-.85.03-1.19Z"/><path class="cls-2" d="m458.93,275.45l-15.69-1c-.47-.03-.86.32-.89.79s.32.86.79.89l15.69,1s.04,0,.06,0c.44,0,.81-.34.84-.79.03-.46-.32-.86-.79-.89Z"/><path class="cls-2" d="m459.95,259.25c-.01-.47-.4-.84-.86-.82-.47.01-.83.4-.82.86l.23,8.52c0,.27.02.71-.12.87-.18.21-.84.17-1.09.16l-5.22-.29.13-5.45c0-.46-.36-.85-.82-.86-.47-.02-.85.36-.86.82l-.12,5.4-4.66-.26c-.44-.02-.94-.05-1.24-.26-.46-.32-.57-1.14-.64-1.88l-.61-6.75c-.04-.46-.45-.8-.91-.76-.46.04-.8.45-.76.91l.61,6.75c.07.81.21,2.32,1.36,3.12.68.47,1.5.52,2.1.55l11.56.64c.13,0,.28.02.45.02.61,0,1.45-.11,2.01-.77.55-.65.53-1.49.51-2l-.23-8.52Z"/><path class="cls-2" d="m460.65,245.97c-5.59-1.03-11.3-1.39-16.97-1.07-.46.03-.82.42-.79.89.03.46.42.81.89.79,4.76-.27,9.55-.05,14.27.66-4.71,2.6-9.72,4.61-14.93,5.99-.38.1-.64.46-.63.85.02.4.31.73.71.79,5.56.9,11.24,1.36,16.88,1.36h0c.46,0,.84-.38.84-.84,0-.46-.38-.84-.84-.84-4.27,0-8.56-.27-12.8-.8,4.77-1.56,9.35-3.65,13.66-6.24.3-.18.46-.53.4-.87-.07-.34-.33-.61-.68-.68Z"/><path class="cls-2" d="m460.98,231.16c-.42.21-.59.71-.38,1.13,1.15,2.32.55,5.51-1.41,7.41-1.9,1.84-4.97,2.51-7.65,1.67-2.58-.81-4.77-2.91-5.84-5.62-.36-.92-.5-1.67-.4-2.31.1-.7.52-1.3,1.04-1.49.43-.16.66-.65.49-1.08-.16-.44-.65-.66-1.08-.49-1.1.41-1.93,1.52-2.12,2.83-.13.94.03,1.98.5,3.17,1.26,3.17,3.84,5.64,6.9,6.6.95.3,1.94.45,2.91.45,2.4,0,4.74-.88,6.42-2.51,2.5-2.42,3.23-6.36,1.74-9.36-.21-.41-.71-.59-1.13-.38Z"/><path class="cls-2" d="m445.29,225.34c1.17.97,2.75,1.14,3.9,1.27l7.91.86c.47.05.94.09,1.41.09.91,0,1.8-.16,2.57-.73,1.25-.93,1.74-2.71,1.35-4.88-.06-.33-.13-.67-.21-1-.23-1.07-.46-2.08-.23-3,.11-.45-.16-.91-.61-1.02-.45-.11-.91.16-1.02.62-.32,1.3-.05,2.55.22,3.77.07.31.14.63.2.94.13.72.33,2.48-.69,3.23-.67.5-1.71.43-2.8.31l-3.88-.42-.13-5.69c-.01-.46-.39-.82-.84-.82h-.02c-.46.01-.83.4-.82.86l.12,5.46-2.34-.26c-1-.11-2.23-.24-3.01-.89-.65-.54-1.04-1.47-1.07-2.57-.03-1.08.26-2.2.54-3.29.12-.45-.15-.91-.6-1.02-.45-.12-.91.15-1.02.6-.3,1.14-.63,2.44-.59,3.76.05,1.58.66,2.97,1.68,3.81Z"/><path class="cls-2" d="m502.58,257.6l-22.2,1.64c-.38.03-.69.31-.76.68s.12.75.46.91l11.08,5.35-9.37,4.04c-.35.15-.56.52-.5.9.06.38.37.67.75.71l18.95,1.72s.05,0,.08,0c.43,0,.8-.33.84-.77.04-.46-.3-.87-.76-.91l-15.65-1.42,8.02-3.46c.3-.13.5-.42.51-.75,0-.33-.18-.63-.47-.78l-9.91-4.79,19.07-1.41c.46-.03.81-.44.78-.9s-.44-.81-.9-.78Z"/><path class="cls-2" d="m480.12,250.75l21.11,3.1s.08,0,.12,0c.41,0,.77-.3.83-.72.07-.46-.25-.89-.71-.95l-7.22-1.06-.67-6.48c2.09-.7,4.21-1.3,6.37-1.78.45-.1.74-.55.64-1-.1-.45-.55-.74-1-.64-7,1.56-13.66,4.25-19.78,7.98-.3.18-.46.54-.39.89.07.35.35.61.7.66Zm11.83-5.53l.58,5.65-9.8-1.44c2.96-1.65,6.04-3.05,9.21-4.21Z"/><path class="cls-2" d="m485.35,230.07l-.02-4.83c0-.46-.38-.84-.84-.84h0c-.47,0-.84.38-.84.84l.06,15.69c0,.46.38.84.84.84h0c.46,0,.84-.38.84-.84l-.04-9.18,15.41.91s.03,0,.05,0c.44,0,.81-.34.84-.79.03-.46-.33-.86-.79-.89l-15.52-.92Z"/><path class="cls-2" d="m483.96,220.59c5.47.79,11.04,1.28,16.55,1.48h.03c.45,0,.82-.36.84-.81.02-.46-.35-.85-.81-.87-2.25-.08-4.5-.21-6.75-.39l.44-8.68c0-.13-.02-.25-.07-.36l5.68,1.02c.05,0,.1.01.15.01.4,0,.75-.28.83-.69.08-.46-.22-.89-.68-.98l-15.38-2.76c-.46-.08-.89.22-.98.68-.08.46.22.89.68.98l8.31,1.49c-.13.14-.21.32-.22.53l-.44,8.62c-2.66-.24-5.31-.55-7.94-.93-.46-.07-.89.25-.95.71-.07.46.25.89.71.95Z"/><path class="cls-2" d="m420.4,278.99c-.03-.46-.43-.82-.89-.79-.46.03-.82.42-.79.89l.37,6.34c.01.21.05.78-.11.93-.15.15-.72.09-.93.07l-14.32-1.48c-.47-.05-.87.29-.92.75-.05.46.29.87.75.92l14.32,1.49c.17.02.4.04.64.04.52,0,1.13-.1,1.62-.56.72-.69.66-1.71.63-2.25l-.37-6.34Z"/><path class="cls-2" d="m419.81,277.36h.01c.46,0,.83-.37.84-.83,0-.47-.36-.85-.83-.86l-14.07-.25c-.47,0-.85.36-.86.83,0,.46.36.85.83.86l14.07.25Z"/><path class="cls-2" d="m421.04,268.63c-4.96-.27-10-.52-14.98-.72-.03,0-.06,0-.09,0l-.13-3.22c-.02-.46-.41-.82-.87-.81-.46.02-.82.41-.81.87l.3,7.66c.02.45.39.81.84.81h.03c.47-.02.83-.41.81-.87l-.11-2.76c4.96.2,9.97.44,14.9.71h.05c.44,0,.81-.35.84-.79.03-.46-.33-.86-.79-.89Z"/><path class="cls-2" d="m421.04,254.97c-.46-.02-.86.33-.88.79l-.35,6.42-4.69-.09-.34-5.07c-.03-.46-.43-.82-.89-.78-.46.03-.81.43-.78.89l.33,4.93-4.34-.09c-.49,0-.94-.04-1.17-.23-.29-.24-.33-.85-.33-1.47l-.02-4.99c0-.46-.38-.84-.84-.84h0c-.46,0-.84.38-.84.84l.02,4.99c0,.69,0,1.97.93,2.74.7.59,1.62.61,2.22.62l11.54.23h.02c.45,0,.81-.35.84-.79l.4-7.24c.02-.47-.33-.86-.8-.89Z"/><path class="cls-2" d="m405.82,252.06c.67.54,1.46.66,2.26.66.24,0,.48,0,.72-.02l12.06-.72c.46-.03.82-.43.79-.89s-.43-.81-.89-.79l-5.16.31c1.61-2.03,3.48-3.84,5.57-5.39.37-.28.45-.8.18-1.18-.27-.37-.8-.45-1.18-.18-1.95,1.45-3.73,3.11-5.29,4.96-.07-.71-.19-1.43-.41-2.15-.54-1.74-1.6-3.11-2.97-3.85-1.65-.89-3.71-.73-5.01.39-1.53,1.31-1.72,3.42-1.78,5.3-.03.9-.08,2.58,1.11,3.55Zm.57-3.49c.05-1.59.18-3.21,1.19-4.07.43-.37,1.02-.55,1.64-.55.5,0,1.02.12,1.48.37.97.52,1.76,1.57,2.16,2.87.37,1.18.42,2.44.39,3.57l-4.56.27c-.73.04-1.42.06-1.81-.26-.48-.39-.52-1.28-.49-2.19Z"/><path class="cls-2" d="m422.03,240.6l-5.04-2.06.23-5.78s0-.07,0-.1l4.17-1.22c.45-.13.7-.6.57-1.04s-.6-.7-1.04-.57l-15.01,4.4c-.34.1-.58.41-.6.76-.02.36.19.69.52.82l15.57,6.35c.1.04.21.06.32.06.33,0,.65-.2.78-.52.17-.43-.03-.92-.46-1.1Zm-6.51-7.44l-.19,4.71-6.64-2.71,6.83-2Z"/><path class="cls-2" d="m423.28,224.01l-15.44-1.91.45-4.53c.05-.46-.29-.87-.75-.92-.46-.05-.87.29-.92.75l-1.23,12.43c-.05.46.29.87.75.92.03,0,.06,0,.08,0,.43,0,.79-.32.84-.76l.61-6.23,15.4,1.9s.07,0,.1,0c.42,0,.78-.31.83-.74.06-.46-.27-.88-.73-.94Z"/><path class="cls-2" d="m424.34,212.96c-.96-.77-2.11-1.14-3.12-1.43-3.29-.95-6.7-1.49-10.12-1.58-.46-.01-.85.35-.86.82-.01.47.35.85.82.87,3.28.09,6.55.6,9.7,1.52.85.25,1.81.56,2.53,1.13.67.53,1.04,1.3.96,1.94-.07.58-.52,1.16-1.17,1.53-.71.4-1.59.55-2.34.64-3.22.37-6.51-.08-9.52-1.32-.43-.17-.92.03-1.1.46-.18.43.03.92.46,1.1,2.53,1.04,5.24,1.57,7.96,1.57.8,0,1.59-.05,2.38-.14.93-.11,2-.29,2.98-.84,1.12-.63,1.87-1.67,2.01-2.78.16-1.24-.44-2.56-1.57-3.47Z"/><path class="cls-2" d="m425.07,198.48l-7.41,7.49c-.09-1.61-.38-3.2-1.22-4.6-1.27-2.13-4.19-3.57-6.52-2.31-1.89,1.02-2.5,3.19-2.93,5.15-.15.68-.6,2.74.87,3.72.57.38,1.22.42,1.69.45l15.17.99s.04,0,.06,0c.44,0,.81-.34.84-.79.03-.46-.32-.86-.78-.89l-6.12-.4,7.54-7.63c.33-.33.32-.86,0-1.19s-.86-.32-1.19,0Zm-15.4,8.22c-.32-.02-.68-.04-.87-.17-.34-.22-.39-.9-.16-1.96.35-1.59.83-3.35,2.09-4.03.34-.19.72-.27,1.1-.27,1.23,0,2.52.87,3.18,1.96.83,1.39,1,3.14,1.02,4.89l-6.35-.41Z"/><path class="cls-2" d="m410.34,196.05s.02,0,.04,0l12.21-.53c.63-.03,1.81-.08,2.49-.99.52-.69.47-1.54.43-2.09l-.3-5c-.03-.46-.43-.83-.89-.79-.47.03-.82.43-.79.89l.3,5c.02.31.05.79-.1.99-.2.27-.88.3-1.21.31l-4.64.2-.07-6.38c0-.46-.39-.82-.85-.83-.46,0-.84.38-.83.85l.07,6.44-5,.22.12-8.08c0-.46-.36-.85-.83-.85h-.01c-.46,0-.83.37-.84.83l-.13,8.97c0,.23.09.46.26.62.16.15.37.24.59.24Z"/><path class="cls-2" d="m319.45,316.64c-2.46-.25-4.82,2.16-5.38,4.51-.59,2.45.51,5.2,2.62,6.54.96.61,2.07.91,3.19.91,1.39,0,2.77-.46,3.84-1.36,1.93-1.63,2.6-4.58,1.57-6.87-1.09-2.4-3.83-3.51-5.84-3.72Zm3.19,9.3c-1.36,1.15-3.53,1.29-5.05.32-1.52-.97-2.32-2.96-1.89-4.73.37-1.53,1.93-3.24,3.38-3.24.06,0,.13,0,.19,0,1.7.18,3.74,1.1,4.49,2.74.74,1.63.26,3.73-1.12,4.89Z"/><path class="cls-2" d="m493.25,181.9c.24.01.49.02.73.02,2.99,0,5.87-1,8.01-2.78,2.34-1.96,3.68-5.07,3.6-8.33-.08-3.26-1.52-6.18-3.96-8.03-4.71-3.56-12.49-.1-15.57,3.75-2.5,3.12-3.14,7.11-1.63,10.17,1.48,3,4.86,4.99,8.82,5.21Zm-5.88-14.32c1.9-2.38,6-4.59,9.53-4.59,1.38,0,2.67.33,3.72,1.13,2.02,1.53,3.22,3.99,3.29,6.73.07,2.75-1.05,5.37-3,7-1.98,1.66-4.74,2.52-7.56,2.37-3.31-.18-6.21-1.86-7.41-4.27-1.48-3-.16-6.39,1.43-8.37Z"/></g><text class="cls-1" transform="translate(126.59 501.35)"><tspan x="0" y="0">Book a Book</tspan></text><g><path class="cls-4" d="m302.83,61.91c-1.92.72-4.02,1.47-6.22,2.24-1.1.38-2.22.77-3.36,1.16-1.13.4-2.25.87-3.39,1.3-4.54,1.76-9.15,3.43-13.16,4.86-7.89,3.15-13.53,4.98-11.79,3.18l-3.53.36c3.23-1.39,8.97-4.02,15.44-6.76,3.29-1.24,6.74-2.55,10.12-3.83,1.69-.63,3.36-1.26,5-1.84,1.66-.51,3.27-1.01,4.79-1.48,3.06-.93,5.8-1.72,7.99-2.3,2.18-.58,3.81-.93,4.65-.92,1.68,0,.06.92-6.56,4.03Z"/><path class="cls-3" d="m309.05,68.46c-13.31,3.83-3.45-.03-1.36-1.46,3.01-1.06,6.11-1.81,9.18-2.68l9.22-2.53c5.82-.65-9.52,4.03-17.04,6.67Z"/><path class="cls-4" d="m307.08,87.48l5.18-1.29c-2.59.65-5.74,1.54-8.85,2.49-1.57.44-3.08,1.01-4.51,1.55-1.43.55-2.77,1.07-3.96,1.53-.37-.34,1.65-1.64,5.01-3.29.83-.43,1.78-.82,2.79-1.21,1.01-.39,2.09-.8,3.21-1.2,2.26-.81,4.71-1.62,7.23-2.36-1.93,1.39-11.62,4.7-6.1,3.78Z"/><path class="cls-4" d="m102.62,252.86c.41,2.43,3.43-.11,7.76-5.6.54-.69,1.1-1.42,1.69-2.19.29-.39.58-.79.89-1.19.32-.4.64-.81.98-1.22,1.32-1.67,2.71-3.49,4.16-5.43,1.44-1.94,2.93-4,4.45-6.16,1.62-2.1,3.3-4.29,4.98-6.55-.06,3.21-.15,6.36-.14,9.51-2.38,3.44-5.06,7.93-7.92,13.08-1.3,2.64-2.63,5.45-4,8.38-1.36,2.93-2.81,5.96-3.98,9.18-1.23,3.2-2.49,6.46-3.76,9.75-.67,1.63-1.15,3.34-1.71,5.02-.54,1.68-1.09,3.37-1.63,5.05-2.32,6.67-3.93,13.47-5.73,19.72-.91,4.93,1.11-.79,2.59-4.6,1.48-3.82,2.44-5.73-.56,6.64-1.38,2.62-1.96.31-3.62,5.48-.5,2.83-.83,5.13-1.06,7.08-.23,1.95-.39,3.55-.36,5.02-.02,2.92.13,5.17.06,8.22-.04,1.53-.13,3.26-.31,5.37-.18,2.11-.27,4.63-.57,7.71-.14,1.54-.31,3.22-.51,5.07-.18,1.85-.51,3.86-.62,6.08-.18,2.22-.37,4.62-.58,7.24-.12,1.31-.24,2.68-.37,4.1-.12,1.42-.31,2.9-.34,4.44l-1.32,8.21-.66,4.13c-.22,1.38-.46,2.76-.58,4.14.1,21.41,2.57,43.01,7.31,64.1,4.73,21.1,11.72,41.69,20.58,61.23,8.86,19.56,19.57,38.07,31.63,55.25,12.06,17.19,25.45,33.05,39.64,47.51,3.05,2.03,7.01,5.56,12.05,9.38,2.46,1.98,5.11,4.11,7.9,6.35,2.86,2.14,5.85,4.39,8.91,6.69,2.99,2.38,6.29,4.48,9.49,6.71,1.61,1.1,3.22,2.2,4.82,3.3l1.2.82,1.23.76c.82.5,1.64,1,2.45,1.5,3.26,1.98,6.43,3.92,9.49,5.71,3.14,1.66,6.14,3.21,8.93,4.61l-.16,1.49c.85.32,1.72.68,2.62,1.07.89.4,1.81.82,2.77,1.21,1.92.82,3.91,1.75,5.96,2.76,2.05,1.02,4.16,2.12,6.31,3.28,2.19,1.08,4.43,2.18,6.7,3.29,2.26,1.14,4.54,2.29,6.82,3.45,2.3,1.1,4.65,2.09,6.95,3.12,2.3,1.01,4.57,1.99,6.79,2.92,2.22.92,4.46,1.6,6.58,2.31l7.38,3.19c.62.26,1.23.55,1.85.79l1.88.7,3.77,1.41c1.32.96-.8.72-4.54-.07-1.89-.35-4.11-1.06-6.52-1.75-2.41-.72-5-1.48-7.52-2.23-1.26-.39-2.53-.7-3.7-1.12-1.19-.4-2.33-.78-3.4-1.14-2.15-.7-4.02-1.27-5.39-1.6-2.74-.65-3.49-.35-.4,1.78,1.98.91,3.94,1.78,5.87,2.62.97.41,1.93.82,2.87,1.23.96.37,1.93.7,2.88,1.04,3.83,1.35,7.55,2.57,11.18,3.71.9.3,1.82.54,2.73.77.91.23,1.82.45,2.72.68,1.8.43,3.59.86,5.35,1.29,1.77.41,3.51.82,5.25,1.22,1.74.38,3.49.64,5.22.96,3.45.62,6.87,1.24,10.28,1.85,3.41.56,6.85.98,10.27,1.56,6.84,1.28,13.84,2.07,21.15,3.66,1.79.31,3.47.38,5.04.55,1.57.13,3.02.26,4.38.37,2.71.22,5.02.38,7.04.49.5.03.99.05,1.46.08.47,0,.92,0,1.36,0,.88-.02,1.69-.03,2.46-.04,1.54-.04,2.88-.1,4.14-.17,2.52-.14,4.69-.34,7.35-.52,1.33-.05,2.78-.26,4.45-.41,1.67-.16,3.57-.31,5.8-.46,4.52-1.5-5.82-1.2-3.98-2.85,4-.16,7.75-.28,11.3-.36,3.54-.26,6.87-.49,10.03-.67,6.33-.23,11.88-.9,16.98-1.24,5.11-.27,9.67-.85,14-1.23,2.17-.18,4.26-.36,6.32-.54,2.06-.17,4.04-.5,6.04-.73,1.99-.25,3.97-.5,5.97-.75,1-.13,2-.26,3.01-.39,1.01-.13,2.03-.26,3.04-.47,4.05-.76,8.27-1.59,12.86-2.59.57-.13,1.16-.24,1.74-.39.58-.16,1.16-.32,1.75-.49,1.18-.34,2.38-.68,3.62-1.04,2.47-.72,5.05-1.5,7.77-2.35.68-.22,1.37-.42,2.07-.66.69-.26,1.38-.52,2.09-.78,1.41-.54,2.85-1.09,4.34-1.66,1.48-.58,3.01-1.18,4.58-1.8,1.56-.65,3.21-1.21,4.81-2.01.36-.48,3.17-2.19,6.54-4.21,1.68-1.02,3.5-2.12,5.25-3.17,1.71-1.11,3.3-2.26,4.59-3.21,2.57-1.93,3.89-3.22,2.18-2.94-1.73.23-6.35,2.34-16.12,6.15-5.8,3.32-11.88,6.01-17.9,8.95-2.18.64-4.45,1.05-6.67,1.55l-6.68,1.44c1.82-.62,3.84-1.31,5.96-2.03,1.06-.36,2.15-.73,3.26-1.11.55-.19,1.11-.38,1.67-.57.55-.22,1.1-.44,1.66-.66,4.43-1.78,8.97-3.59,12.92-5.26,7.77-3.71,13.31-6.61,11.48-6.65.64-.12,1.35-.26,2.08-.46.73-.22,1.5-.49,2.32-.79,1.63-.6,3.43-1.34,5.35-2.19,1.92-.85,3.97-1.82,6.1-2.86,2.09-1.12,4.23-2.38,6.44-3.67,2.2-1.29,4.44-2.64,6.69-4.01,2.21-1.44,4.37-2.98,6.53-4.47,2.15-1.51,4.27-3,6.33-4.44,1.98-1.55,3.9-3.06,5.73-4.49,1.82-1.43,3.55-2.78,5.14-4.03,1.62-1.21,2.97-2.49,4.23-3.52,2.5-2.11,4.36-3.61,5.35-4.23,1.96-1.23.45,1.05-6.81,9.25-2.78,1.79-5.31,3.43-7.64,4.93-1.16.76-2.26,1.49-3.33,2.19-.53.35-1.05.7-1.56,1.03-.52.32-1.03.63-1.54.93-4.02,2.43-7.36,4.55-10.41,6.6-.38.26-.76.51-1.13.77-.38.24-.76.47-1.14.71-.75.48-1.49.95-2.23,1.42-1.47.95-2.9,1.92-4.36,2.93-1.46,1.01-2.94,2.07-4.49,3.2-1.56,1.11-3.25,2.18-5.03,3.41,1.67-.84,3.34-1.68,4.99-2.52,1.62-.91,3.23-1.82,4.84-2.72,1.61-.9,3.21-1.8,4.81-2.69l2.4-1.33,1.2-.66,1.16-.72c6.16-3.86,12.36-7.5,18.12-11.62,1.46-1,2.92-1.99,4.37-2.99l2.18-1.48,2.1-1.58c2.79-2.1,5.57-4.19,8.33-6.27l2.07-1.56,1.98-1.65c1.32-1.1,2.64-2.19,3.95-3.28,1.31-1.09,2.62-2.17,3.93-3.26l1.96-1.62,1.87-1.71c2.49-2.27,4.97-4.53,7.43-6.78l1.84-1.68c.61-.56,1.18-1.17,1.77-1.75,1.17-1.18,2.33-2.35,3.49-3.52,1.16-1.17,2.32-2.34,3.47-3.5,1.14-1.18,2.34-2.29,3.4-3.53,2.18-2.43,4.35-4.84,6.5-7.24,1.07-1.21,2.17-2.39,3.2-3.61,1.01-1.25,2.02-2.49,3.02-3.74,2.01-2.49,4-4.97,5.99-7.43,1.91-2.52,3.72-5.1,5.56-7.64.92-1.27,1.83-2.54,2.74-3.81.45-.64.92-1.26,1.35-1.91l1.26-1.96,2.96-6.77,1.47-3.37c.5-1.12.98-2.24,1.4-3.4.62.07,1.91-1.14,3.71-3.32.9-1.09,1.92-2.42,3.05-3.95,1.1-1.54,2.41-3.24,3.57-5.22,1.21-1.95,2.49-4.08,3.82-6.32.66-1.13,1.34-2.28,2.03-3.46.34-.59.69-1.19,1.04-1.79.34-.61.64-1.24.97-1.87,1.27-2.53,2.58-5.14,3.9-7.78.65-1.33,1.31-2.66,1.97-4,.66-1.34,1.19-2.74,1.79-4.11.83-2.44,1.76-5.04,2.67-7.51.45-1.24.89-2.45,1.31-3.6.39-1.16.71-2.27,1.01-3.28,1.2-4.03,1.78-6.48.73-5.17.02-.6-.41.23-1.16,2.05-.38.91-.83,2.08-1.35,3.43-.26.68-.54,1.41-.83,2.17-.33.76-.67,1.55-1.03,2.39-1.41,3.33-3.06,7.21-4.76,11.23-1.83,3.97-3.84,8.01-5.69,11.8-.47.95-.92,1.87-1.37,2.78-.47.89-.97,1.74-1.43,2.58-.95,1.65-1.84,3.19-2.63,4.56-1.61,2.74-2.92,4.79-3.71,5.77-1.61,1.95-1.18-.44,2.71-10.26.79-1.51,1.65-2.99,2.39-4.54.73-1.55,1.47-3.09,2.21-4.64,1.46-3.11,2.99-6.19,4.42-9.32,1.34-3.17,2.67-6.34,4.01-9.5.66-1.59,1.37-3.15,1.99-4.75.59-1.61,1.18-3.21,1.77-4.82,1.19-3.21,2.37-6.4,3.55-9.58,1.03-3.23,2.05-6.44,3.07-9.63.51-1.59,1.03-3.18,1.54-4.77.47-1.59.87-3.2,1.31-4.78.87-3.18,1.72-6.33,2.57-9.44,6.41-25.04,9.19-48.47,10.94-66.31-.03,3.26-.06,6.41-.08,9.47-.02,1.53-.04,3.04-.06,4.54-.02,1.49-.02,2.97-.15,4.43-.18,2.92-.37,5.79-.55,8.64-.08,1.43-.17,2.85-.25,4.27l-.12,2.13-.22,2.12c-.29,2.83-.55,5.68-.8,8.58-.25,2.9-.42,5.86-.83,8.86-.34,3.01-.67,6.11-.96,9.33-.22,3.23-.7,6.53-1.11,10-4.42,23.13-11.84,46.24-21.96,68.37l-.92,2.09-1.02,2.04-2.04,4.09c-1.37,2.73-2.73,5.45-4.1,8.18l-4.51,7.98-2.26,3.99-1.13,2-1.23,1.94-4.91,7.76-2.47,3.88-2.64,3.76-5.29,7.51c-.86,1.27-1.8,2.48-2.75,3.68l-2.82,3.62c-15,19.34-32,37.03-50.38,52.54-18.41,15.48-38.06,28.91-58.2,40.27-1.9.06-8.29,2.86-13.68,4.55-5.34,1.81-9.43,3.05-6.44.8-1.02.31-2.24.75-3.61,1.28-1.39.47-2.93,1.02-4.57,1.62-3.26,1.23-6.92,2.61-10.52,3.97-3.66,1.18-7.27,2.3-10.38,3.12-1.55.41-2.98.74-4.23.97-1.24.24-2.34.26-3.17.22-33.29,11.37-71.91,16.77-109.39,15-18.74-.91-37.15-3.45-54.57-7.26-4.33-1.03-8.63-2.05-12.87-3.06-4.19-1.22-8.32-2.42-12.4-3.61-1.02-.3-2.04-.59-3.05-.89-1-.34-1.99-.69-2.98-1.03-1.98-.68-3.94-1.36-5.89-2.03-1.95-.67-3.88-1.33-5.8-1.99-1.9-.7-3.75-1.48-5.61-2.21,3.77,2.57,3.38,3.14.35,2.44-1.51-.35-3.68-1.01-6.31-1.89-1.31-.45-2.74-.95-4.26-1.47-1.51-.54-3.07-1.25-4.71-1.92-13.3-5.1-29.64-14.24-37.81-18.08-1.75-1.2-3.55-2.68-5.55-4.11-1.99-1.45-4.12-2.95-6.36-4.49-2.27-1.49-4.52-3.21-6.87-4.93-2.35-1.7-4.77-3.44-7.21-5.2-1.24-.85-2.42-1.8-3.62-2.73-1.2-.93-2.4-1.87-3.6-2.8-2.39-1.87-4.83-3.7-7.16-5.57-2.28-1.94-4.53-3.85-6.72-5.71-1.09-.93-2.17-1.85-3.23-2.75-.53-.45-1.05-.9-1.57-1.34-.51-.46-.99-.93-1.48-1.39-2.16-1.1-11.98-10.09-10.45-7.06,2.97,2.66,5.42,4.93,7.6,7.04,1.09,1.06,2.12,2.07,3.12,3.05,1.03.95,2.03,1.88,3.04,2.81,4.02,3.72,7.89,7.74,14.28,12.86-1.77-.46-4.43-2.01-7.6-4.45-3.11-2.52-6.79-5.86-10.82-9.63-1.97-1.93-3.94-4.06-6.01-6.2-2.05-2.17-4.22-4.34-6.29-6.64-2.06-2.32-4.14-4.67-6.21-7.01-1.05-1.16-2.09-2.31-3.13-3.46-1.05-1.13-2-2.35-3-3.49l2.38,2.13c.79.71,1.65,1.36,2.47,2.04l4.97,4.02c-13.96-14.56-26.79-32.69-37.58-51.19-10.87-18.51-19.71-37.33-27.87-53.41,3.02,9.8,6.44,19.54,10.42,29.09-2.69-4.95-5.53-10.03-7.88-15.45-1.21-2.69-2.44-5.4-3.67-8.13-1.19-2.75-2.2-5.59-3.3-8.4-1.06-2.83-2.19-5.64-3.18-8.5-.92-2.88-1.85-5.77-2.77-8.65-.46-1.44-.92-2.88-1.37-4.31-.22-.72-.47-1.43-.67-2.15l-.58-2.18c-.77-2.9-1.54-5.78-2.3-8.64-2.97-11.46-5.2-22.7-7.08-33.11-.26-1.3-.51-2.58-.76-3.86-.2-1.28-.39-2.54-.59-3.79-.39-2.5-.8-4.93-1.21-7.3-.22-1.18-.43-2.35-.64-3.49-.22-1.15-.45-2.27-.59-3.39-.34-2.23-.69-4.38-1.07-6.44.14,7.56,1.36,16.28,2.51,25.14.79,4.4,1.6,8.83,2.38,13.16.21,1.08.36,2.16.61,3.22.25,1.06.49,2.11.73,3.14.48,2.08.94,4.11,1.4,6.09,3.65,15.8,7.26,27.61,5.31,27.79-.31-.12-.76-.76-1.32-1.81-.54-1.05-1.27-2.49-1.89-4.31-1.3-3.61-2.85-8.51-4.44-13.88-1.36-5.43-2.68-11.37-3.86-16.97-.91-5.65-1.69-10.97-2.21-15.13-.16-1.12-.24-2.26-.33-3.38-.09-1.13-.18-2.25-.27-3.36-.2-2.23-.39-4.44-.58-6.64-.1-1.1-.21-2.19-.31-3.28l-.16-1.63-.08-1.63c-.12-2.17-.24-4.33-.35-6.48-.13-2.14-.27-4.27-.4-6.39-.06-1.06-.17-2.11-.19-3.16-.02-1.05-.04-2.1-.07-3.15-.09-4.19-.22-8.33-.36-12.43-.05-4.1.07-8.16.07-12.18,0-2.01.02-4.02.03-6.01.1-1.99.2-3.98.29-5.95.2-3.96.39-7.89.59-11.79.38-3.89.75-7.76,1.13-11.61.21-1.92.34-3.85.61-5.76.29-1.9.57-3.8.86-5.7.6-3.79,1.11-7.59,1.82-11.34,1.63-7.46,3.03-14.96,5.31-22.24,4.04-14.7,9.92-28.94,17.38-42.71Z"/><path class="cls-4" d="m70.38,346.59c-.23,1.89-.44,3.69-.65,5.41-.11,1.73-.22,3.37-.32,4.93-.19,3.13-.33,5.95-.44,8.5-.05,1.28-.09,2.48-.14,3.63-.02,1.15.03,2.24.05,3.27.06,2.06.13,3.9.22,5.55.18,3.31.41,5.9.68,8.11.27,2.21.72,4.05,1.07,5.86.76,3.63,1.43,7.16,2.11,13.38.98,6.2,1.55,15.1,3.46,29.37-.74-1.72-1.19-1.25-1.39.72-.09.99-.18,2.36-.12,4.01.08,1.65.23,3.59.43,5.73.2,2.15.46,4.5.75,6.97.15,1.23.31,2.5.47,3.78.23,1.27.47,2.56.71,3.86.49,2.6,1,5.22,1.53,7.79.53,2.57,1.02,5.1,1.71,7.43,1.58,4.43,3.06,9.12,4.56,13.89,1.69,4.71,3.32,9.52,4.91,14.27,1.7,4.71,3.53,9.3,5.2,13.72.43,1.1.82,2.2,1.27,3.26.46,1.05.92,2.09,1.37,3.11.91,2.04,1.8,4,2.64,5.89,1.06,2.61,1.68,4.55,1.87,5.67.19,1.12-.02,1.42-.74.8-.67-.65-1.77-2.25-3.27-4.97-.75-1.36-1.61-2.99-2.56-4.92-.47-.97-.97-2.01-1.51-3.12-.26-.56-.54-1.13-.8-1.73-.25-.61-.5-1.23-.76-1.88-1.02-3.29-2.1-6.61-3.22-9.96-.54-1.68-1.19-3.34-1.67-5.06-.51-1.71-1.03-3.44-1.55-5.17-1.07-3.45-2.15-6.94-3.24-10.46-.98-3.55-1.97-7.13-2.96-10.74-.5-1.8-1.05-3.6-1.51-5.42-.43-1.83-.87-3.67-1.31-5.5-.88-3.68-1.77-7.37-2.66-11.08-.74-3.74-1.47-7.49-2.21-11.24-.36-1.88-.77-3.75-1.09-5.63l-.84-5.67c-.55-3.78-1.14-7.56-1.65-11.33-.36-3.79-.72-7.56-1.07-11.32-.17-1.88-.34-3.75-.51-5.62-.07-1.87-.14-3.74-.21-5.6-.11-3.72-.22-7.42-.33-11.07-.01-3.66.17-7.28.28-10.86.08-1.79.15-3.56.23-5.33.04-.88.09-1.76.13-2.64.09-.87.18-1.74.27-2.61.36-3.47.76-6.88,1.18-10.22.22-1.67.41-3.33.69-4.96.32-1.63.64-3.24.95-4.83Z"/><path class="cls-3" d="m91.59,298.06c-2.04,7.05-3.15,11.72-4.37,15.06-1.16,3.36-2.25,5.45-3.17,7.56-.89,2.12-1.76,4.24-2.64,7.65-.44,1.7-.89,3.72-1.35,6.23-.26,1.25-.41,2.63-.57,4.15-.16,1.52-.32,3.18-.47,5-.23-3.14-.26-5.73-.02-8.25.32-2.51.83-4.95,1.49-7.83.34-1.44.7-2.99,1.11-4.71.41-1.72.82-3.62,1.44-5.71.58-2.11,1.2-4.44,1.86-7.08.32-1.32.67-2.71,1.03-4.18.17-.74.35-1.5.54-2.27.19-.78.44-1.56.66-2.38-.54,2.54-.78,5.16-1.16,7.73l-1.05,7.72c2.17-6.29,4.11-12.59,6.68-18.69Z"/><path class="cls-4" d="m106.31,533.59c1.11,2.1,2.39,4.56,3.76,7.26.68,1.35,1.39,2.77,2.12,4.22.73,1.46,1.45,2.98,2.3,4.46,3.35,5.96,6.65,12.56,10.2,18.38,1.71,2.95,3.33,5.8,4.78,8.44,1.56,2.56,2.97,4.91,4.11,6.96,2.29,4.08,3.58,6.91,3.23,7.58,1.56,2.4-2.53-.61,4.56,7.63-1.23-1.74-2.79-3.88-4.57-6.31-1.72-2.47-3.56-5.3-5.57-8.28-4.13-5.88-8.11-12.91-12.05-19.56-1.85-3.4-3.54-6.8-5.15-9.99-.79-1.6-1.55-3.15-2.27-4.64-.71-1.49-1.27-2.98-1.84-4.36-2.22-5.54-3.61-9.8-3.61-11.79Z"/><path class="cls-3" d="m90.24,451.66c.26,1.27.65,2.51.98,3.78.34,1.27.67,2.54,1.02,3.84.68,2.6,1.35,5.3,2.05,8.16.73,2.86,1.69,5.83,2.6,9.07.47,1.62.95,3.3,1.46,5.04.26.87.5,1.77.78,2.67.31.9.62,1.81.94,2.74-.45-1.21-1.01-2.43-1.44-3.72-.45-1.29-.9-2.61-1.37-3.95-.94-2.7-1.9-5.52-2.86-8.46-.23-.74-.48-1.48-.7-2.23-.19-.76-.39-1.53-.58-2.3-.38-1.55-.75-3.12-1.1-4.73-.35-1.6-.68-3.23-.99-4.88-.15-.83-.29-1.66-.44-2.5-.15-.84-.27-1.68-.34-2.54Z"/><path class="cls-4" d="m122.46,552.99c-.02-2.09,2.06,1.28,4.49,5.76,2.62,4.35,5.67,9.79,7.12,12.03.85,1.67,1.83,3.26,2.79,4.86l2.89,4.81c-1.63-2.08-3.35-4.31-5.08-6.61-1.67-2.34-3.25-4.81-4.81-7.22-1.54-2.42-3.02-4.8-4.32-7.09-1.2-2.34-2.26-4.56-3.08-6.55Z"/><path class="cls-4" d="m230.04,673.41c5.71,3.97,7.09,4.92,6.16,4.74-.45-.12-1.5-.47-2.74-1.12-1.25-.62-2.75-1.4-4.22-2.17-5.87-3.06-11.19-5.84,2.75,3.3l-8.16-5.06-4.08-2.53c-1.34-.88-2.64-1.81-3.97-2.71l-3.89-6.66,8.93,6.31c3.05,1.99,6.14,3.93,9.21,5.89Z"/><path class="cls-4" d="m266.03,696.33c3.78,1.32,7.55,2.76,11.95,4.66,4.49,1.68,9.6,3.86,16.08,6.66-2.56-.5-5.09-1.14-7.64-1.71-2.54-.75-5.14-2.01-8.38-3.58-3.2-1.67-6.97-3.79-12.01-6.03Z"/><path class="cls-4" d="m237.48,672.98c5.91,2.98,8.23,4.56,9.96,6.01,1.73,1.44,2.83,2.8,6.47,4.98-2.52-.61-9.53-5.11-14.49-8.48-1.23-.86-2.36-1.6-3.2-2.3-.84-.69-1.46-1.23-1.75-1.55-.57-.65.15-.38,3.02,1.34Z"/><path class="cls-4" d="m363.3,698.51c-2.96.2-6.62-.13-10.82-.62-2.09-.28-4.33-.53-6.64-.98-2.31-.48-4.72-1.02-7.21-1.58-2.49-.58-5.07-1.14-7.7-1.8-2.6-.74-5.26-1.5-7.95-2.27-1.35-.38-2.7-.76-4.07-1.14-1.36-.38-2.74-.73-4.08-1.2-2.71-.88-5.43-1.74-8.15-2.56,5.45,1.63,10.09,3.06,14.51,3.96,2.19.5,4.29.98,6.37,1.45,2.07.46,4.09.98,6.18,1.31,4.16.75,8.39,1.56,13.14,2.57,4.8.75,10.12,1.73,16.43,2.88Z"/><path class="cls-4" d="m501.62,54.54c5.44,2.02,11.51,3.64,17.06,5.48,5.58,1.74,10.85,3.04,14.68,4.27-1.78-.99-3.52-2.1-5.35-2.98l-13.14-3.67-1.64-.46-1.66-.38-3.32-.76-6.63-1.5Z"/><path class="cls-4" d="m335.12,49.33c-5.76,2.87-3.43,2.73,3.2,1.51.83-.16,1.73-.33,2.68-.51.96-.16,1.99-.29,3.07-.45,2.16-.3,4.54-.63,7.07-.99,2.53-.32,5.21-.72,7.99-.95,2.79-.18,5.68-.32,8.59-.42,7.62-.99,15.37-1.43,23.14-2.19,1.94-.22,3.89-.27,5.85-.37l5.87-.3c3.91-.18,7.84-.52,11.76-.46,3.93-.03,7.86-.05,11.78-.08,1.96-.05,3.92.08,5.87.16,1.96.09,3.91.19,5.86.28,7.82.23,15.52,1.29,23.13,2.25,1.57.03,3.12.17,4.68.32l4.67.41,9.38.84c-4.52-.92-9.46-1.93-14.74-3.01-.66-.13-1.33-.28-2-.39-.68-.1-1.36-.2-2.04-.31-1.37-.2-2.77-.41-4.18-.62-2.83-.41-5.73-.83-8.69-1.27-.74-.11-1.49-.21-2.23-.32-.75-.07-1.51-.14-2.27-.21-1.52-.14-3.05-.28-4.6-.42-3.09-.28-6.23-.56-9.41-.84-3.18-.24-6.41-.28-9.66-.42-3.25-.1-6.53-.24-9.83-.3-3.29.07-6.6.13-9.91.2l-4.97.12-2.48.06-2.47.18c-3.3.26-6.58.51-9.85.77-1.63.13-3.26.27-4.88.4-1.62.17-3.22.42-4.81.62-6.37.91-12.64,1.59-18.58,2.91-5.95,1.2-11.69,2.26-17,3.8Z"/><path class="cls-3" d="m316.56,69.52c5.4-1.15,11.05-2.84,16.93-4.08,2.93-.69,5.87-1.41,8.8-2.15,1.46-.4,2.95-.67,4.42-.98,1.47-.31,2.94-.62,4.39-.92,2.91-.63,5.77-1.24,8.55-1.84,2.8-.5,5.52-.93,8.13-1.36,2.61-.42,5.1-.81,7.43-1.19,1.17-.2,2.3-.3,3.39-.4,1.09-.09,2.14-.19,3.14-.27-1.69.11-3.4.22-5.15.33-1.73.2-3.49.4-5.27.61-3.56.42-7.19.84-10.86,1.27-3.65.56-7.31,1.23-10.96,1.84-1.83.31-3.65.62-5.46.94-1.8.35-3.58.79-5.35,1.17-3.54.79-7.01,1.57-10.38,2.33-3.35.83-6.55,1.79-9.62,2.62-1.53.43-3.03.84-4.48,1.24-1.45.4-2.87.78-4.2,1.25-2.68.88-5.16,1.7-7.41,2.44-1.02.71,1.11.28,4.15-.49,1.52-.4,3.27-.87,4.99-1.32,1.73-.4,3.43-.75,4.8-1.03Z"/><path class="cls-4" d="m723.89,239.43c-4.25-8.81-9.05-18.43-14.69-28.21-5.58-9.81-11.99-19.76-18.99-29.45-1.67-2.48-3.59-4.79-5.42-7.15-1.86-2.35-3.73-4.69-5.59-7.03-.91-1.19-1.92-2.29-2.91-3.41-.99-1.11-1.98-2.23-2.97-3.34-1.99-2.2-3.98-4.4-5.96-6.58-4.14-4.18-8.32-8.22-12.46-12.09-4.32-3.7-8.57-7.26-12.78-10.58,3.5,3.51,6.08,6.24,8.35,8.65,1.13,1.21,2.18,2.34,3.23,3.47.99,1.17,1.98,2.34,3.02,3.57,2.09,2.46,4.41,5.17,7.5,8.68,2.96,3.62,6.63,8.12,11.49,14.08-4.44-3.8-8.66-7.84-12.62-12.24-2.08-2.11-4.14-4.28-6.18-6.51-1.01-1.13-2.03-2.26-3.05-3.4-1.02-1.14-2.01-2.33-3.09-3.43-2.12-2.26-4.27-4.55-6.44-6.87-1.09-1.16-2.18-2.34-3.28-3.52-1.12-1.17-2.31-2.27-3.47-3.41-2.35-2.27-4.76-4.55-7.23-6.83-.62-.57-1.23-1.15-1.88-1.7-.65-.54-1.31-1.08-1.97-1.62-1.32-1.08-2.67-2.15-4.03-3.21,8.63,7.32,6.81,6.7.98,2.83-1.46-.97-3.17-2.14-5.04-3.44-1.88-1.29-3.85-2.78-6.03-4.13-2.13-1.41-4.34-2.86-6.51-4.29-1.08-.72-2.15-1.44-3.19-2.15-1.05-.71-2.06-1.42-3.09-2.03-14.74-10.55-35.16-22.51-58.47-32.07-2.93-1.15-5.88-2.32-8.85-3.49-1.49-.58-2.98-1.17-4.47-1.75-1.52-.51-3.04-1.03-4.57-1.54-3.05-1.02-6.12-2.05-9.19-3.08l-2.3-.76-2.34-.66-4.68-1.31c-3.12-.87-6.24-1.73-9.34-2.6-3.14-.71-6.28-1.43-9.4-2.13-1.56-.35-3.11-.7-4.66-1.06l-2.32-.52-2.33-.41c-3.11-.54-6.19-1.08-9.24-1.62-1.33-.15-2.84-.34-4.5-.57-1.67-.21-3.51-.35-5.46-.57-3.91-.44-8.32-.93-12.99-1.46-4.68-.35-9.62-.71-14.56-1.07l-1.85-.14-1.86-.05c-1.24-.03-2.47-.06-3.69-.09-2.45-.05-4.87-.11-7.23-.16-4.71-.19-9.18.07-13.15.23-3.97.2-7.44.33-10.15.68-5.42.76-7.83,1.52-5.26,2.29-3.73.32-7.05.57-10.07.75-3.01.26-5.7.56-8.17.73-2.47.19-4.71.32-6.82.42-1.05.05-2.07.07-3.06.13-.99.07-1.95.15-2.9.22-3.8.27-7.38.46-11.4.79-2.02.12-4.12.43-6.42.8-2.3.36-4.79.8-7.55,1.33-2,.63-4,1.15-5.96,1.82-1.96.65-3.9,1.3-5.84,1.95-1.94.62-3.87,1.23-5.78,1.84-1.92.59-3.84,1.16-5.71,1.86-3.76,1.32-7.49,2.58-11.22,3.8-.93.31-1.87.58-2.78.92l-2.74,1.02c-1.83.67-3.65,1.33-5.47,1.99-7.35,2.46-14.37,5.49-21.55,8.2-3.54,1.46-7.01,3.05-10.54,4.57l-5.28,2.3c-1.73.82-3.45,1.69-5.18,2.53-3.45,1.71-6.93,3.4-10.4,5.18-3.39,1.91-6.79,3.83-10.22,5.77l-2.57,1.47-1.29.74-1.25.8c-1.66,1.08-3.33,2.16-5.01,3.25-1.67,1.1-3.35,2.21-5.03,3.32-.84.56-1.68,1.13-2.52,1.69-.81.61-1.63,1.21-2.45,1.82-3.26,2.45-6.54,4.95-9.82,7.53-3.23,2.64-6.35,5.49-9.54,8.35-.79.72-1.58,1.44-2.38,2.17-.8.72-1.59,1.46-2.34,2.25-1.51,1.56-3.03,3.13-4.56,4.72-3.03,3.2-6.13,6.41-8.95,9.99.36-1.21-.91-.47-3.18,1.48-1.13.98-2.52,2.25-4.07,3.74-.77.75-1.61,1.53-2.43,2.39-.8.88-1.64,1.8-2.51,2.74-1.71,1.91-3.51,3.93-5.33,5.96-.9,1.02-1.81,2.05-2.71,3.07-.88,1.04-1.7,2.11-2.53,3.15-3.29,4.16-6.37,7.98-8.53,10.77-2.25,3.13-4.87,6.8-7.73,10.8-1.47,1.97-2.81,4.15-4.23,6.36-1.41,2.21-2.87,4.48-4.34,6.78-.72,1.16-1.49,2.3-2.19,3.49-.68,1.2-1.37,2.4-2.05,3.61-1.36,2.41-2.73,4.83-4.08,7.22-.67,1.2-1.35,2.38-1.98,3.58-.6,1.22-1.2,2.42-1.79,3.61-1.17,2.39-2.31,4.73-3.41,6.98-2.27,4.47-3.91,8.84-5.42,12.57-.74,1.87-1.4,3.61-1.98,5.17-.28.78-.56,1.52-.79,2.22-.2.71-.39,1.38-.56,1.99-1.32,4.91-1.13,6.61,1.32,3.31.64-1.14,1.29-2.37,1.94-3.67.68-1.29,1.39-2.65,2.14-4.07,1.46-2.85,2.94-5.97,4.46-9.31.39-.83.74-1.69,1.17-2.53.42-.84.85-1.7,1.28-2.56.85-1.73,1.72-3.51,2.61-5.31.88-1.81,1.77-3.66,2.67-5.53.89-1.88,1.96-3.7,2.95-5.59,1.01-1.88,2.04-3.77,3.07-5.68.52-.95,1.04-1.91,1.56-2.87l.79-1.44.86-1.4c2.29-3.73,4.62-7.47,6.98-11.14l.89-1.37.95-1.33c.64-.88,1.28-1.75,1.91-2.63,1.28-1.74,2.56-3.45,3.85-5.13,1.31-1.67,2.54-3.35,3.91-4.9,1.37-1.54,2.74-3.05,4.1-4.49,2.34-2.51,4.25-4.51,5.77-6.08,1.54-1.55,2.79-2.59,3.63-3.3,1.7-1.4,1.99-1.3,1.25-.1-1.58,2.31-6.89,9.34-13.15,17.77-2.95,4.35-6.25,8.98-9.29,13.65-2.91,4.76-5.8,9.4-8.18,13.59-4.49,8.55-7.59,14.89-6.73,15.61.7-1.84,1.71-3.27,2.8-4.81,1.11-1.53,2.39-3.12,3.91-5.14,1.53-2.01,3.2-4.52,5.45-7.66,1.1-1.59,2.28-3.38,3.56-5.41.64-1.02,1.3-2.1,1.98-3.25.34-.58.69-1.17,1.05-1.77.38-.59.77-1.2,1.17-1.83-.43.66-.86,1.29-1.24,1.91-.37.63-.72,1.24-1.07,1.82-.67,1.17-1.29,2.24-1.86,3.22-1.12,1.96-2.01,3.57-2.69,4.86-1.37,2.59-1.95,3.94-1.92,4.42,0,.94,2.29-1.61,4.99-4.76,5.32-6.4,12.71-14.83,6.56-3.66.51-.73,1.01-1.44,1.5-2.14.51-.69,1.04-1.35,1.54-2,1.01-1.31,1.99-2.57,2.94-3.79,1.89-2.43,3.64-4.69,5.28-6.79,3.48-4.03,6.45-7.47,9.04-10.46,1.27-1.51,2.58-2.79,3.76-4.02,1.19-1.21,2.3-2.34,3.33-3.39,2.09-2.09,3.88-3.89,5.6-5.46,3.54-3.05,6.53-5.41,10.07-8.07,1.73-1.36,3.76-2.64,6.02-4.15,2.25-1.49,4.79-3.18,7.77-5.16.72-.75,1.46-1.42,2.17-2.07.7-.65,1.38-1.28,2.02-1.88,1.29-1.21,2.46-2.32,3.52-3.36,1.06-1.03,2.01-1.98,2.87-2.86.85-.88,1.62-1.69,2.34-2.37,2.83-2.81,4.28-4.65,5.11-6.06.84-1.41,1.07-2.39,1.5-3.48.21-.55.48-1.12.89-1.79.41-.68.98-1.44,1.84-2.32,3.53-2.8,7.02-5.47,10.48-8.01,3.52-2.45,7.1-4.65,10.58-6.83,3.45-2.24,7.07-4.06,10.58-5.93,3.53-1.84,6.96-3.71,10.53-5.24,3.53-1.6,7.02-3.18,10.5-4.75,3.53-1.43,7.05-2.86,10.57-4.28,1.76-.7,3.48-1.51,5.27-2.16,1.78-.67,3.56-1.35,5.34-2.02,1.78-.69,3.56-1.4,5.34-2.13.89-.37,1.78-.74,2.67-1.11.89-.37,1.81-.68,2.72-1.03-9.93,6.95,2.46,3,21.98-2.2,2.44-.65,5-1.34,7.63-2.04,2.66-.6,5.4-1.21,8.19-1.83,1.39-.32,2.8-.64,4.21-.97,1.41-.32,2.83-.69,4.27-.91,2.88-.52,5.77-1.05,8.65-1.57,5.73-1.19,11.49-1.78,16.89-2.54,1.35-.18,2.68-.36,3.99-.54,1.31-.18,2.6-.23,3.86-.35,2.52-.2,4.92-.4,7.18-.58,1.46-.11,2.84-.21,4.15-.31.66-.05,1.29-.1,1.91-.15.62-.02,1.23-.04,1.81-.06,2.35-.08,4.44-.18,6.3-.29,3.72-.21,6.54-.51,8.77-.75,4.45-.36,6.53-.96,8.7-1.56,1.09-.3,2.2-.59,3.64-.85.72-.13,1.53-.25,2.46-.36.47-.05.96-.11,1.49-.15.53-.01,1.1-.03,1.7-.05,2.43-.04,5.5.02,9.53.22,1.01.06,2.08.12,3.21.18,1.13.06,2.33.14,3.59.32,2.52.31,5.31.67,8.42,1.1,6.1,1.5,5.93,2.08,2.82,2.23-1.56.08-3.85.04-6.49-.04-1.31-.05-2.71-.1-4.15-.15-1.43-.07-2.9-.13-4.36-.09-11.68.1-22.14.3-6.15,3.08,7.56,0,15.08.75,22.64,1.26,3.68-.01,7.17-.02,10.62-.03,3.47-.02,6.93-.14,10.43.11,3.52.17,7.13.39,10.98.71,1.94.11,3.87.48,5.91.78,2.03.32,4.13.68,6.32,1.09,10.17,2.79,25.04,8.23,25.04,9.34-2.45-.81-4.48-1.54-6.21-1.93-1.72-.41-3.06-.68-4.05-.82-1.98-.28-2.55-.03-1.89.64.67.67,2.57,1.78,5.54,3.21,2.93,1.55,6.88,3.56,11.73,5.8,1.2.35,2.3.65,3.28.96.98.33,1.86.63,2.67.91,1.62.55,2.96.99,4.14,1.36,2.37.75,4.15,1.23,6.54,1.8-8.91-5.8-10.92-7.63-8.33-6.89,1.29.37,3.72,1.37,6.98,2.81.81.36,1.68.75,2.59,1.16.92.4,1.87.85,2.84,1.38,1.95,1.02,4.06,2.13,6.3,3.31,2.23,1.19,4.61,2.39,7.02,3.75,2.38,1.41,4.84,2.86,7.35,4.34,1.25.74,2.52,1.48,3.79,2.22l1.91,1.12,1.86,1.21c2.49,1.6,4.99,3.2,7.46,4.78,9.83,6.36,18.87,12.71,25.29,16.69,4.58,3.04,8.43,6.19,12,9,1.78,1.41,3.47,2.76,5.06,4.06,1.53,1.38,2.98,2.69,4.36,3.93,2.74,2.51,5.19,4.78,7.34,6.9,2.07,2.2,3.88,4.2,5.5,6.04,1.61,1.84,3.02,3.52,4.27,5.08,1.22,1.58,2.22,3.11,3.16,4.52,1.85,2.83,3.3,5.31,4.71,7.78.35.62.71,1.23,1.05,1.87.33.64.66,1.29,1,1.96.68,1.32,1.4,2.68,2.21,4.13.8,1.45,1.69,2.98,2.7,4.64.51.82,1.05,1.69,1.62,2.59.54.92,1.12,1.89,1.72,2.91,1.22,2.03,2.6,4.24,4.18,6.67.8,1.21,1.65,2.48,2.54,3.83.85,1.37,1.74,2.82,2.67,4.34.96,1.51,1.97,3.09,3.03,4.76.54.83,1.09,1.68,1.66,2.55.29.44.57.88.87,1.32.27.46.55.92.83,1.39,2.22,3.77,4.74,7.86,7.5,12.39-1.97-6.33-1.12-6.56,1.64-2.93.71.89,1.44,2.09,2.27,3.48.83,1.39,1.76,2.99,2.75,4.77.98,1.78,2.05,3.73,3.2,5.81,1.1,2.1,2.12,4.4,3.25,6.76,1.11,2.38,2.26,4.85,3.44,7.38,1.14,2.55,2.15,5.23,3.25,7.9,1.08,2.68,2.16,5.38,3.25,8.07.96,2.74,1.91,5.46,2.84,8.13.92,2.68,1.93,5.27,2.72,7.83.79,2.56,1.56,5.04,2.28,7.38.74,2.34,1.46,4.55,2.14,6.59.61,2.06,1.14,3.96,1.68,5.64,1.29,5.83,2.41,10.73,2.89,15.15.58,4.4,1.01,8.22,1.31,11.83.14,3.63.2,7.03.25,10.56.02,1.76.04,3.56.07,5.43-.06,1.88-.13,3.84-.19,5.92.28,1.61.59,3.95.93,6.61.17,1.33.34,2.74.52,4.17.11,1.44.21,2.9.32,4.33.44,5.73.92,11,1.51,12.4,1.78-3.32,3.53-9.32,5.08-17.7.59-4.18,1.14-8.96,1.63-14.3.06-.67.12-1.34.18-2.03.04-.68.06-1.37.08-2.07.04-1.4.08-2.83.13-4.29.07-2.93.13-5.99.16-9.17.05-1.6-.04-3.21-.11-4.85-.08-1.65-.16-3.32-.24-5.03-.09-1.71-.18-3.45-.28-5.21-.11-1.76-.16-3.57-.39-5.37-.84-7.22-1.53-14.97-3.1-22.94-.36-2.01-.72-4.03-1.08-6.08-.19-1.03-.38-2.06-.57-3.1-.24-1.02-.48-2.05-.72-3.09-.99-4.15-1.99-8.39-3.02-12.71-1.2-4.27-2.51-8.6-3.82-13.03-.33-1.11-.66-2.22-1-3.33-.35-1.11-.76-2.2-1.15-3.31-.79-2.21-1.58-4.44-2.38-6.68-.98-1.82-1.84-3.39-1.96-3.27Z"/></g></g></svg>